<?xml version="1.0" standalone="no"?><!DOCTYPE svg PUBLIC "-//W3C//DTD SVG 1.1//EN" "http://www.w3.org/Graphics/SVG/1.1/DTD/svg11.dtd"><svg t="1626824843293" class="icon" viewBox="0 0 1024 1024" version="1.1" xmlns="http://www.w3.org/2000/svg" p-id="1233" xmlns:xlink="http://www.w3.org/1999/xlink" width="16" height="16"><defs><style type="text/css"></style></defs><path d="M972.19826 159.363161A169.088556 169.088556 0 0 0 801.92933 0.012689H221.480483a169.088556 169.088556 0 0 0-170.859117 159.350472L5.176972 841.914347a198.892996 198.892996 0 0 0 45.444394 125.11963 182.662855 182.662855 0 0 0 125.11963 56.953039h671.337635a161.416126 161.416126 0 0 0 125.119629-56.953039 150.792761 150.792761 0 0 0 45.444394-125.11963z m-55.477571 764.292076a55.772665 55.772665 0 0 1-43.083646 18.295795H155.084453a55.772665 55.772665 0 0 1-43.083646-18.295795A66.39603 66.39603 0 0 1 93.705012 880.571591L136.493565 137.231151a60.494161 60.494161 0 0 1 61.674534-55.182478h626.483428a60.494161 60.494161 0 0 1 61.379441 55.182478l49.280609 737.733665a69.642058 69.642058 0 0 1-18.295795 48.985515z" fill="#3295FC" p-id="1234"></path><path d="M752.648721 270.908491a51.93645 51.93645 0 0 1-48.100234 48.100235h-4.721496a196.827342 196.827342 0 0 1-187.974538 144.595798 190.925472 190.925472 0 0 1-182.072668-144.595798h-9.738085A51.93645 51.93645 0 0 1 270.761092 270.908491a51.93645 51.93645 0 0 1 48.100235-48.100235h48.100234a51.93645 51.93645 0 0 1 48.100235 48.100235 96.495563 96.495563 0 1 0 192.991127 0 51.93645 51.93645 0 0 1 48.100235-48.100235h48.395329a48.395328 48.395328 0 0 1 48.100234 48.100235z" fill="#F8AD4B" p-id="1235"></path></svg>