<?xml version="1.0" standalone="no"?><!DOCTYPE svg PUBLIC "-//W3C//DTD SVG 1.1//EN"
  "http://www.w3.org/Graphics/SVG/1.1/DTD/svg11.dtd">
<svg t="1626051220563" class="icon" viewBox="0 0 1024 1024" version="1.1" xmlns="http://www.w3.org/2000/svg" p-id="2607"
     xmlns:xlink="http://www.w3.org/1999/xlink" width="25" height="25">
  <defs>
    <style type="text/css"></style>
  </defs>
  <path
    d="M976.9 424.6L581.2 44c-37.9-36.5-97.3-36.5-135.3 0L50.1 424.6c-29.3 28.2-38 69.1-22.9 106.8 15.2 37.7 49.9 61.1 90.5 61.1h32.6v293.6c0 67.1 54.6 121.7 121.7 121.7h161.4V730c0-35.2 28.7-63.9 63.9-63.9h43.5c35.2 0 63.9 28.7 63.9 63.9v255.5h0.1v22.2h161.3c67.1 0 121.7-54.6 121.7-121.7V592.5h21.6c40.6 0 75.3-23.4 90.5-61.1 15.1-37.7 6.3-78.6-23-106.8z m-30.7 85.2c-2.4 5.8-12 24.9-36.9 24.9H830V886c0 35.2-28.7 63.9-63.9 63.9H662.5V730c0-67.1-54.6-121.7-121.7-121.7h-43.5c-67.1 0-121.7 54.6-121.7 121.7v220H272c-35.2 0-63.9-28.7-63.9-63.9V534.9h-0.3v-0.2h-90c-24.9 0-34.6-19.1-36.9-24.9-2.4-5.8-8.6-26.3 9.3-43.6L485.9 85.6c15.5-14.9 39.7-14.9 55.2 0l395.8 380.6c18 17.3 11.7 37.8 9.3 43.6z"
    fill="#444444" p-id="2608"></path>
</svg>
