<?xml version="1.0" standalone="no"?><!DOCTYPE svg PUBLIC "-//W3C//DTD SVG 1.1//EN"
  "http://www.w3.org/Graphics/SVG/1.1/DTD/svg11.dtd">
<svg t="1626050738884" class="icon" viewBox="0 0 1024 1024" version="1.1" xmlns="http://www.w3.org/2000/svg" p-id="1350"
     width="25" height="25" xmlns:xlink="http://www.w3.org/1999/xlink">
  <defs>
    <style type="text/css"></style>
  </defs>
  <path
    d="M512 594.986667a246.186667 246.186667 0 0 1-245.973333-245.973334V298.666667a245.973333 245.973333 0 0 1 491.946666 0v49.706666A246.186667 246.186667 0 0 1 512 594.986667zM512 117.333333a182.186667 182.186667 0 0 0-181.973333 181.333334v49.706666a181.973333 181.973333 0 0 0 363.946666 0V298.666667A182.186667 182.186667 0 0 0 512 117.333333zM512 945.92a32 32 0 0 1-32-32v-192a32 32 0 0 1 64 0v192a32 32 0 0 1-32 32z"
    fill="#FA6401" p-id="1351"></path>
  <path
    d="M874.666667 957.653333H149.333333a32 32 0 0 1-32-32 394.666667 394.666667 0 0 1 789.333334 0 32 32 0 0 1-32 32z m-691.84-64h658.346666a330.666667 330.666667 0 0 0-658.346666 0z"
    fill="#0190FF" p-id="1352"></path>
  <path d="M512 945.92a32 32 0 0 0 32-32v-21.333333h-64v21.333333a32 32 0 0 0 32 32z" fill="#013701" p-id="1353"></path>
  <path d="M646.186667 554.666667a388.693333 388.693333 0 0 0-268.373334 0 244.48 244.48 0 0 0 268.373334 0z"
        fill="#013900" p-id="1354"></path>
</svg>
