<?xml version="1.0" standalone="no"?><!DOCTYPE svg PUBLIC "-//W3C//DTD SVG 1.1//EN"
  "http://www.w3.org/Graphics/SVG/1.1/DTD/svg11.dtd">
<svg t="1626051089899" class="icon" viewBox="0 0 1024 1024" version="1.1" xmlns="http://www.w3.org/2000/svg" p-id="1753"
     width="25" height="25" xmlns:xlink="http://www.w3.org/1999/xlink">
  <defs>
    <style type="text/css"></style>
  </defs>
  <path
    d="M513 561.1c-66.6 0-129.2-25.9-176.3-73-47.1-47.1-73-109.7-73-176.3s25.9-129.2 73-176.3c47.1-47.1 109.7-73 176.3-73 66.6 0 129.2 25.9 176.3 73s73 109.7 73 176.3-25.9 129.2-73 176.3c-47.1 47.1-109.7 73-176.3 73z m0-448.8c-109.9 0-199.4 89.4-199.4 199.4 0 109.9 89.4 199.4 199.4 199.4 109.9 0 199.4-89.4 199.4-199.4 0-109.9-89.5-199.4-199.4-199.4z"
    fill="#333333" p-id="1754"></path>
  <path
    d="M893.8 973.6c-13.8 0-25-11.2-25-25 0-196.2-159.6-355.8-355.8-355.8-196.2 0-355.8 159.6-355.8 355.8 0 13.8-11.2 25-25 25s-25-11.2-25-25c0-54.8 10.7-107.9 31.9-158 20.4-48.3 49.7-91.7 87-129s80.7-66.5 129-87c50.1-21.2 103.2-31.9 158-31.9s107.9 10.7 158 31.9c48.3 20.4 91.7 49.7 129 87s66.5 80.7 87 129c21.2 50 31.9 103.2 31.9 158-0.2 13.8-11.4 25-25.2 25z"
    fill="#333333" p-id="1755"></path>
</svg>
